<?xml version="1.0" encoding="utf-8"?>
<!-- Generator: Adobe Illustrator 19.2.1, SVG Export Plug-In . SVG Version: 6.00 Build 0)  -->
<svg version="1.1" id="Capa_1" xmlns="http://www.w3.org/2000/svg" xmlns:xlink="http://www.w3.org/1999/xlink" x="0px" y="0px"
	 viewBox="0 0 378.3 128.6" style="enable-background:new 0 0 378.3 128.6;" xml:space="preserve">
<style type="text/css">
	.st0{fill:url(#SVGID_1_);}
	.st1{fill:url(#SVGID_2_);}
	.st2{fill:url(#SVGID_3_);}
	.st3{fill:url(#SVGID_4_);}
	.st4{fill:url(#SVGID_5_);}
	.st5{fill:url(#SVGID_6_);}
	.st6{fill:url(#SVGID_7_);}
	.st7{fill:url(#SVGID_8_);}
</style>
<g id="BACKGROUND">
</g>
<g>
	
		<linearGradient id="SVGID_1_" gradientUnits="userSpaceOnUse" x1="25.4437" y1="134.3337" x2="120.4438" y2="39.3338" gradientTransform="matrix(1 0 0 -1 0 157.89)">
		<stop  offset="0" style="stop-color:#1B80BF"/>
		<stop  offset="1" style="stop-color:#BF2C47"/>
	</linearGradient>
	<path class="st0" d="M73,4.2C35.4,4.2,4.9,34.7,4.9,72.3c0,13.3,3.8,25.7,10.4,36.2c1.2-8.4,8.3-14.8,17-14.8
		c2.3,0,4.5,0.5,6.6,1.3c1-4.9,5.4-8.6,10.6-8.6c2.8,0,5.3,1.1,7.2,2.8c3-11.7,13.6-20.3,26.2-20.3c14.3,0,26.1,11.1,27,25.2
		c1.2-0.2,2.4-0.4,3.6-0.4c8.7,0,15.9,6.5,17,14.8c6.6-10.5,10.4-22.9,10.4-36.2C141.1,34.7,110.6,4.2,73,4.2z M113.9,28.3L76.8,51
		L66.3,65.9c-1.5,2.1-3.6,3.7-6.1,4.4l-6.1,1.9l4.2-10.1l-24,11.1c-3.4,1.9-7.1,3.4-10.9,4.5c-1.6,0.4-2.8-1.3-1.9-2.6l4.6-6.4
		l-7.4-3l7.6-4.8l8.7,0.5l16.7-9.7l-34.1-4.2l10.1-5.2c1.4-0.8,3-1.2,4.7-1.3l43.2-2.8L95,27c4.7-2.7,10.2-3.6,15.5-2.6l2.8,0.5
		C114.9,25.2,115.3,27.4,113.9,28.3z"/>
	<g>
		<linearGradient id="SVGID_2_" gradientUnits="userSpaceOnUse" x1="176.4478" y1="46.909" x2="373.2449" y2="-141.1137">
			<stop  offset="0" style="stop-color:#1B80BF"/>
			<stop  offset="1" style="stop-color:#BF2C47"/>
		</linearGradient>
		<path class="st1" d="M144.6,79.5V43.2H165c3.1,0,5.7,0.6,7.7,1.8c2,1.2,3.5,2.8,4.5,4.9c1,2,1.5,4.4,1.5,7c0,2.4-0.6,4.6-1.9,6.4
			c-1.3,1.8-2.8,3.4-4.5,4.6c0.4,0.3,0.7,0.6,1,0.9c0.2,0.3,0.4,0.7,0.6,1l4.3,9.9h-14.2l-3.6-8.1c-0.2-0.5-0.4-0.8-0.6-0.9
			c-0.2-0.2-0.5-0.3-1-0.3h-0.6v9.3H144.6z M158.2,59.6h3.3c2.2,0,3.3-0.9,3.3-2.8c0-1.1-0.3-1.8-0.8-2.3c-0.5-0.5-1.3-0.7-2.3-0.7
			h-3.6V59.6z"/>
		<linearGradient id="SVGID_3_" gradientUnits="userSpaceOnUse" x1="195.5748" y1="66.9286" x2="392.3719" y2="-121.0941">
			<stop  offset="0" style="stop-color:#1B80BF"/>
			<stop  offset="1" style="stop-color:#BF2C47"/>
		</linearGradient>
		<path class="st2" d="M196.4,80.1c-5.7,0-9.9-1.2-12.7-3.5c-2.8-2.3-4.1-5.8-4.1-10.4c0-4.6,1.4-8.1,4.1-10.4
			c2.8-2.3,7-3.5,12.7-3.5c11.2,0,16.9,4.6,16.9,13.9S207.6,80.1,196.4,80.1z M196.4,70.3c1,0,1.7-0.3,2.2-0.9
			c0.5-0.6,0.7-1.7,0.7-3.3c0-1.6-0.2-2.7-0.7-3.3s-1.2-0.9-2.2-0.9c-0.9,0-1.7,0.3-2.1,0.9s-0.7,1.7-0.7,3.3c0,1.6,0.2,2.7,0.7,3.3
			C194.7,70,195.5,70.3,196.4,70.3z"/>
		<linearGradient id="SVGID_4_" gradientUnits="userSpaceOnUse" x1="210.6485" y1="82.7057" x2="407.4456" y2="-105.317">
			<stop  offset="0" style="stop-color:#1B80BF"/>
			<stop  offset="1" style="stop-color:#BF2C47"/>
		</linearGradient>
		<path class="st3" d="M227.3,80.1c-2.6,0-5-0.2-7.2-0.6c-2.3-0.4-4-0.8-5.2-1.4v-8.6c0.9,0.5,2,0.8,3.2,1.2
			c1.2,0.3,2.4,0.6,3.6,0.8c1.2,0.2,2.2,0.3,3,0.3c0.9,0,1.6,0,2.2-0.1c0.6,0,0.9-0.2,0.9-0.6c0-0.3-0.3-0.5-0.9-0.7
			c-0.6-0.2-1.4-0.4-2.3-0.6c-0.9-0.2-1.9-0.5-2.8-0.8c-2.4-0.9-4.2-1.9-5.3-3.1c-1.1-1.1-1.6-2.8-1.6-4.9c0-2.9,1.2-5,3.6-6.5
			c2.4-1.5,6-2.2,10.9-2.2c1.2,0,2.5,0.1,3.9,0.2c1.4,0.1,2.8,0.3,4,0.5c1.3,0.2,2.3,0.4,3,0.7v8.6c-1.2-0.5-2.5-0.9-3.9-1.2
			c-1.4-0.3-2.6-0.4-3.7-0.4c-0.5,0-1.1,0-1.7,0c-0.6,0-1.1,0.1-1.6,0.2c-0.4,0.1-0.6,0.3-0.6,0.5c0,0.4,0.6,0.7,1.7,0.9
			c1.1,0.2,2.4,0.5,3.8,0.9c2,0.6,3.5,1.2,4.5,1.9c1.1,0.7,1.8,1.5,2.3,2.5c0.4,1,0.6,2.2,0.6,3.7c0,2.7-1.2,4.9-3.6,6.5
			C235.6,79.3,232,80.1,227.3,80.1z"/>
		<linearGradient id="SVGID_5_" gradientUnits="userSpaceOnUse" x1="226.0054" y1="98.7794" x2="422.8026" y2="-89.2434">
			<stop  offset="0" style="stop-color:#1B80BF"/>
			<stop  offset="1" style="stop-color:#BF2C47"/>
		</linearGradient>
		<path class="st4" d="M251.9,80.1c-1.7,0-3.3-0.3-4.7-0.9c-1.4-0.6-2.6-1.6-3.4-2.9c-0.9-1.3-1.3-3-1.3-5.1c0-3,0.9-5.3,2.8-6.8
			c1.9-1.5,4.8-2.3,8.8-2.3h6v-0.3c0-0.4-0.4-0.8-1.2-1.1s-2-0.5-3.6-0.5c-1.4,0-3,0.1-4.7,0.4c-1.7,0.2-3.3,0.6-4.8,1v-7.3
			c1.5-0.6,3.3-1.1,5.6-1.5c2.3-0.4,4.4-0.5,6.5-0.5c3,0,5.6,0.4,7.8,1.2c2.3,0.8,4,2,5.3,3.7c1.3,1.7,1.9,3.8,1.9,6.4v16h-12
			l-0.6-1.9c-0.9,0.7-2.1,1.3-3.5,1.8C255.6,79.8,253.9,80.1,251.9,80.1z M257,72.6c0.7,0,1.3-0.1,1.8-0.3c0.5-0.2,0.9-0.5,1.3-0.9
			v-2.5h-2.5c-1.7,0-2.5,0.6-2.5,1.9C255,72,255.7,72.6,257,72.6z"/>
		<linearGradient id="SVGID_6_" gradientUnits="userSpaceOnUse" x1="241.4253" y1="114.9188" x2="438.2224" y2="-73.104">
			<stop  offset="0" style="stop-color:#1B80BF"/>
			<stop  offset="1" style="stop-color:#BF2C47"/>
		</linearGradient>
		<path class="st5" d="M276.7,79.5V52.8h12.8l0.3,1.5c1-0.5,2.3-1,4-1.4c1.7-0.4,3.5-0.6,5.4-0.6c3.2,0,5.5,0.8,7,2.5
			c1.4,1.7,2.2,4.2,2.2,7.6v17.2h-13.7V64c0-1.2-0.6-1.8-1.9-1.8c-0.4,0-0.8,0.1-1.3,0.3c-0.5,0.2-0.9,0.5-1.2,0.8v16.1H276.7z"/>
		<linearGradient id="SVGID_7_" gradientUnits="userSpaceOnUse" x1="259.1811" y1="133.5032" x2="455.9782" y2="-54.5195">
			<stop  offset="0" style="stop-color:#1B80BF"/>
			<stop  offset="1" style="stop-color:#BF2C47"/>
		</linearGradient>
		<path class="st6" d="M322.6,80.1c-2.5,0-4.7-0.4-6.6-1.3c-1.9-0.9-3.4-2.3-4.4-4.2c-1.1-1.9-1.6-4.5-1.6-7.6
			c0-3.3,0.6-6.1,1.7-8.3c1.1-2.2,2.7-3.8,4.7-4.9c2-1.1,4.2-1.6,6.8-1.6c1,0,2,0.1,3.1,0.3c1.1,0.2,2,0.4,2.7,0.7V41.5h13.7v38
			h-11.8l-0.6-1.7c-1,0.7-2.1,1.3-3.2,1.7C325.7,79.9,324.2,80.1,322.6,80.1z M326.5,70.3c0.5,0,1-0.1,1.3-0.2
			c0.3-0.2,0.7-0.4,1.1-0.6v-6.7c-0.7-0.6-1.5-0.8-2.4-0.8c-0.8,0-1.5,0.4-1.9,1.2c-0.5,0.8-0.7,2-0.7,3.7c0,1.6,0.2,2.6,0.7,2.9
			C325.1,70.1,325.7,70.3,326.5,70.3z"/>
		<linearGradient id="SVGID_8_" gradientUnits="userSpaceOnUse" x1="274.9962" y1="150.0563" x2="471.7933" y2="-37.9664">
			<stop  offset="0" style="stop-color:#1B80BF"/>
			<stop  offset="1" style="stop-color:#BF2C47"/>
		</linearGradient>
		<path class="st7" d="M354.5,80.1c-1.7,0-3.3-0.3-4.7-0.9c-1.4-0.6-2.6-1.6-3.4-2.9c-0.9-1.3-1.3-3-1.3-5.1c0-3,0.9-5.3,2.8-6.8
			c1.9-1.5,4.8-2.3,8.8-2.3h6v-0.3c0-0.4-0.4-0.8-1.2-1.1c-0.8-0.3-2-0.5-3.6-0.5c-1.4,0-3,0.1-4.7,0.4c-1.7,0.2-3.3,0.6-4.8,1v-7.3
			c1.5-0.6,3.3-1.1,5.6-1.5c2.3-0.4,4.4-0.5,6.5-0.5c3,0,5.6,0.4,7.8,1.2c2.3,0.8,4,2,5.3,3.7c1.3,1.7,1.9,3.8,1.9,6.4v16h-12
			l-0.6-1.9c-0.9,0.7-2.1,1.3-3.5,1.8C358.3,79.8,356.5,80.1,354.5,80.1z M359.6,72.6c0.7,0,1.3-0.1,1.8-0.3
			c0.5-0.2,0.9-0.5,1.3-0.9v-2.5h-2.5c-1.7,0-2.5,0.6-2.5,1.9C357.7,72,358.3,72.6,359.6,72.6z"/>
	</g>
</g>
</svg>
